HIERARCHY
ROOT Hips
{
    OFFSET 0.000000 0.000000 0.000000
    CHANNELS 6 Xposition Yposition Zposition Zrotation Xrotation Yrotation
    JOINT Spine
    {
        OFFSET -0.000000 14.517291 0.000000
        CHANNELS 3 Zrotation Xrotation Yrotation
        JOINT Spine1
        {
            OFFSET -0.000000 37.558300 0.000000
            CHANNELS 3 Zrotation Xrotation Yrotation
            JOINT Neck
            {
                OFFSET -0.000000 37.404057 3.400369
                CHANNELS 3 Zrotation Xrotation Yrotation
                JOINT Head
                {
                    OFFSET -0.000000 24.785618 -3.540803
                    CHANNELS 3 Zrotation Xrotation Yrotation
                    End Site
                    {
                        OFFSET -0.000000 35.408028 0.000000
                    }
                }
            }
            JOINT LeftShoulder
            {
                OFFSET 6.992933 33.973492 -0.192664
                CHANNELS 3 Zrotation Xrotation Yrotation
                JOINT LeftArm
                {
                    OFFSET 21.527611 0.000000 0.000000
                    CHANNELS 3 Zrotation Xrotation Yrotation
                    JOINT LeftForeArm
                    {
                        OFFSET 56.353916 0.000000 0.000000
                        CHANNELS 3 Zrotation Xrotation Yrotation
                        JOINT LeftHand
                        {
                            OFFSET 47.774071 0.000000 0.000000
                            CHANNELS 3 Zrotation Xrotation Yrotation
                            End Site
                            {
                                OFFSET 26.556021 0.000000 0.000000
                            }
                        }
                    }
                }
            }
            JOINT RightShoulder
            {
                OFFSET -7.065357 33.973492 -0.192664
                CHANNELS 3 Zrotation Xrotation Yrotation
                JOINT RightArm
                {
                    OFFSET -21.527611 0.000000 0.000000
                    CHANNELS 3 Zrotation Xrotation Yrotation
                    JOINT RightForeArm
                    {
                        OFFSET -56.353916 0.000000 0.000000
                        CHANNELS 3 Zrotation Xrotation Yrotation
                        JOINT RightHand
                        {
                            OFFSET -47.774071 0.000000 0.000000
                            CHANNELS 3 Zrotation Xrotation Yrotation
                            End Site
                            {
                                OFFSET -26.556021 0.000000 0.000000
                            }
                        }
                    }
                }
            }
        }
    }
    JOINT LeftUpLeg
    {
        OFFSET 17.704014 0.000000 0.000000
        CHANNELS 3 Zrotation Xrotation Yrotation
        JOINT LeftLeg
        {
            OFFSET -0.000000 -81.181816 0.000000
            CHANNELS 3 Zrotation Xrotation Yrotation
            JOINT LeftFoot
            {
                OFFSET -0.000000 -62.821102 0.000000
                CHANNELS 3 Zrotation Xrotation Yrotation
                JOINT LeftToeBase
                {
                    OFFSET -0.000000 -11.507608 26.556021
                    CHANNELS 3 Zrotation Xrotation Yrotation
                    End Site
                    {
                        OFFSET -0.000000 0.000000 7.081605
                    }
                }
            }
        }
    }
    JOINT RightUpLeg
    {
        OFFSET -17.704014 0.000000 0.000000
        CHANNELS 3 Zrotation Xrotation Yrotation
        JOINT RightLeg
        {
            OFFSET -0.000000 -81.181816 0.000000
            CHANNELS 3 Zrotation Xrotation Yrotation
            JOINT RightFoot
            {
                OFFSET -0.000000 -62.821102 0.000000
                CHANNELS 3 Zrotation Xrotation Yrotation
                JOINT RightToeBase
                {
                    OFFSET -0.000000 -11.507608 26.556021
                    CHANNELS 3 Zrotation Xrotation Yrotation
                    End Site
                    {
                        OFFSET -0.000000 0.000000 7.081605
                    }
                }
            }
        }
    }
}
MOTION
Frames:    9
Frame Time:    0.008333
26.499294    155.368561    -35.971386    0.767053    -1.711820    -44.978718    2.052566    -0.751262    2.415257    3.382196    0.059506    0.798781    13.723944    1.766284    14.297007    -10.754552    7.908278    12.283828    11.295527    -2.268631    -15.456057    -8.606425    -13.707731    -33.999111    2.513817    -27.624041    -49.631500    -22.549776    -18.896652    -40.088249    -7.157183    4.557684    -0.046620    34.871677    8.991239    78.632202    5.433775    -2.320385    102.496269    10.077836    -6.965555    23.706520    17.447208    -19.614433    5.462354    -12.481574    20.596504    -3.853592    -7.740904    -0.446176    37.670364    0.000000    0.000000    0.000000    -16.964659    0.465708    -6.491448    7.730804    30.616287    -2.252323    4.773101    -22.884686    -16.549280    0.000000    0.000000    0.000000    
26.479280    155.355453    -35.993744    0.758540    -1.701084    -44.921436    2.057921    -0.770202    2.412589    3.352191    0.068289    0.797526    13.776427    1.784596    14.307737    -10.805698    7.922569    12.287920    11.163380    -2.206319    -15.483150    -8.978320    -13.366145    -34.488094    3.320939    -28.413536    -49.172588    -22.746069    -19.322880    -40.136318    -7.136997    4.543455    -0.027583    34.857933    8.980639    78.616264    5.434661    -2.321806    102.495049    10.070125    -6.968594    23.715034    17.464159    -19.645603    5.453225    -12.485493    20.617451    -3.872299    -7.751368    -0.445430    37.653919    0.000000    0.000000    0.000000    -16.942533    0.476938    -6.533604    7.744704    30.640692    -2.249060    4.760274    -22.909586    -16.576485    0.000000    0.000000    0.000000    
26.444393    155.345734    -36.035973    0.744612    -1.691392    -44.859539    2.025616    -0.774245    2.406463    3.367324    0.067725    0.795544    13.785663    1.765680    14.310643    -10.792776    7.966859    12.292500    11.019715    -2.106078    -15.477101    -9.303038    -12.910166    -35.036560    4.253287    -29.366928    -48.667995    -22.871786    -19.930296    -40.099270    -7.129306    4.555705    -0.024232    34.832851    8.966960    78.635391    5.416920    -2.350980    102.489693    10.062561    -6.977146    23.710173    17.490417    -19.671988    5.453318    -12.480224    20.631298    -3.911081    -7.763517    -0.422825    37.638786    0.000000    0.000000    0.000000    -16.898073    0.486931    -6.573781    7.740038    30.677315    -2.263449    4.757108    -22.944981    -16.597904    0.000000    0.000000    0.000000    
26.423410    155.334808    -36.056698    0.738349    -1.687313    -44.804043    2.019508    -0.794857    2.401263    3.340105    0.087801    0.793085    13.850634    1.751075    14.327691    -10.841857    8.025800    12.301875    10.900547    -1.985159    -15.457259    -9.716532    -12.699293    -35.625042    4.949001    -30.095364    -48.221752    -22.873377    -20.472488    -39.962360    -7.099391    4.548509    -0.008065    34.827847    8.945050    78.632835    5.435729    -2.334212    102.480873    10.054377    -6.983564    23.721735    17.496719    -19.694752    5.439761    -12.480473    20.636181    -3.915532    -7.765439    -0.412712    37.622929    0.000000    0.000000    0.000000    -16.879969    0.500622    -6.613499    7.746700    30.697863    -2.295403    4.750721    -22.962936    -16.578493    0.000000    0.000000    0.000000    
26.401880    155.327301    -36.075779    0.730606    -1.683668    -44.759876    2.002534    -0.814015    2.406675    3.336093    0.106304    0.794201    13.867459    1.738674    14.329668    -10.833611    8.064154    12.304363    10.762965    -1.834361    -15.454488    -10.116499    -12.589683    -36.182804    5.468190    -30.782125    -47.880394    -22.914736    -21.033234    -39.822750    -7.096890    4.550805    0.000272    34.839191    8.936040    78.638374    5.433336    -2.332031    102.465652    10.030178    -6.982843    23.708851    17.505377    -19.705694    5.434216    -12.475650    20.637972    -3.954669    -7.771932    -0.406698    37.622494    0.000000    0.000000    0.000000    -16.861164    0.510497    -6.632834    7.756787    30.725134    -2.295278    4.734372    -22.986084    -16.596025    0.000000    0.000000    0.000000    
26.379120    155.317108    -36.093857    0.722606    -1.682331    -44.715782    1.984822    -0.835779    2.408680    3.328977    0.134370    0.793964    13.878549    1.727306    14.336474    -10.811905    8.089099    12.312466    10.640059    -1.676145    -15.439845    -10.663062    -12.836359    -36.810520    5.588470    -31.199371    -47.641685    -22.972042    -21.460747    -39.678749    -7.088930    4.550842    0.009851    34.833042    8.938285    78.645081    5.430852    -2.363713    102.465332    10.068876    -7.001328    23.727129    17.510523    -19.718044    5.425424    -12.466867    20.643642    -3.974831    -7.779196    -0.405954    37.610153    0.000000    0.000000    0.000000    -16.844200    0.522351    -6.647552    7.773338    30.751942    -2.329126    4.721692    -23.006376    -16.593792    0.000000    0.000000    0.000000    
26.361191    155.310272    -36.113029    0.718579    -1.685105    -44.677101    1.963753    -0.846988    2.423641    3.315109    0.151859    0.798435    13.912862    1.706506    14.330662    -10.813561    8.127492    12.302667    10.536096    -1.581288    -15.427459    -11.177079    -12.933634    -37.377068    5.673767    -31.643616    -47.484993    -23.009768    -21.936901    -39.528774    -7.077623    4.551473    0.005783    34.830151    8.944324    78.645157    5.445547    -2.382597    102.467155    10.058236    -7.038912    23.750624    17.510447    -19.723427    5.403218    -12.466674    20.633511    -3.982464    -7.770417    -0.392627    37.597004    0.000000    0.000000    0.000000    -16.830437    0.532221    -6.671828    7.764768    30.775610    -2.300416    4.732437    -23.035784    -16.634676    0.000000    0.000000    0.000000    
26.339722    155.304367    -36.131203    0.706549    -1.687752    -44.641155    1.948995    -0.856703    2.441767    3.297527    0.171414    0.803888    13.937666    1.700698    14.324456    -10.795560    8.135502    12.294091    10.417173    -1.427914    -15.430878    -11.582392    -12.894363    -37.953251    6.024901    -32.239895    -47.206867    -23.126074    -22.456141    -39.359238    -7.064041    4.559251    -0.001851    34.846283    8.943891    78.646286    5.462178    -2.375949    102.458832    10.034202    -7.054831    23.772017    17.514597    -19.722563    5.390419    -12.457752    20.628017    -3.993827    -7.788928    -0.386448    37.595257    0.000000    0.000000    0.000000    -16.814095    0.550032    -6.672301    7.785128    30.791464    -2.318938    4.701456    -23.046730    -16.644899    0.000000    0.000000    0.000000    
26.317734    155.295944    -36.148857    0.695981    -1.690929    -44.608368    1.938569    -0.860101    2.458495    3.269615    0.179117    0.809337    13.965497    1.711455    14.321051    -10.781743    8.128222    12.288367    10.288095    -1.297787    -15.426428    -11.947804    -12.782213    -38.490616    6.395988    -32.813225    -46.951897    -23.219728    -22.948042    -39.213249    -7.045839    4.567250    0.001600    34.843250    8.968865    78.642998    5.403927    -2.467003    102.469429    10.162733    -7.052493    23.716179    17.523172    -19.720869    5.367263    -12.461369    20.621597    -3.984538    -7.787197    -0.377929    37.569199    0.000000    0.000000    0.000000    -16.795897    0.569559    -6.679806    7.783716    30.803869    -2.303184    4.700899    -23.075289    -16.664482    0.000000    0.000000    0.000000    
